<svg width="64" height="64" viewBox="0 0 64 64" fill="none" xmlns="http://www.w3.org/2000/svg">
  <circle cx="32" cy="32" r="32" fill="#5865F2"/>
  <path d="M24.9 21.3c3.8-.2 12.3-.1 14.2.3 1.6.4 3.1 1.8 3.8 3.6 1.4 3.5 1.3 8.7 1 12.2-.1 1.7-1.1 3.1-2.5 3.8-3 .8-11.8.7-16 .2-1.8-.2-3.4-1.8-4-3.6-1.1-3.7-1-8.1-.6-12 .3-1.9 1.5-3.8 3.3-4.2l.8-.3zm3.2 10.8c0 1.4.9 2.5 2 2.5 1.2 0 2.1-1.1 2-2.5 0-1.4-.9-2.5-2-2.5-1.1 0-2 .9-2 2.5zm8.8 0c0 1.4.9 2.5 2 2.5 1.2 0 2.1-1.1 2-2.5 0-1.4-.9-2.5-2-2.5-1.1 0-2 .9-2 2.5z" fill="white"/>
  <path d="M28 25.8c1.3-.2 2.8-.2 4-.1" stroke="white" stroke-width="1.2" stroke-linecap="round" opacity="0.8"/>
  <path d="M36.5 25.8c1.3-.2 2.7-.2 3.9-.1" stroke="white" stroke-width="1.2" stroke-linecap="round" opacity="0.8"/>
</svg>
