<svg width="320" height="320" viewBox="0 0 320 320" xmlns="http://www.w3.org/2000/svg">
  <defs>
    <linearGradient id="g1" x1="0%" y1="0%" x2="100%" y2="100%">
      <stop offset="0%" stop-color="#ff6b3d"/>
      <stop offset="50%" stop-color="#ffb347"/>
      <stop offset="100%" stop-color="#3ed6ff"/>
    </linearGradient>
    <linearGradient id="g2" x1="0%" y1="0%" x2="0%" y2="100%">
      <stop offset="0%" stop-color="#fff3e6" stop-opacity="0.95"/>
      <stop offset="100%" stop-color="#ffd2a3" stop-opacity="0.75"/>
    </linearGradient>
  </defs>
  <rect x="18" y="18" width="284" height="284" rx="64" fill="#0e0c16"/>
  <rect x="22" y="22" width="276" height="276" rx="62" fill="url(#g1)" fill-opacity="0.16"/>
  <path d="M146 258c-46-14-70-53-70-97 0-47 27-87 74-104l4 22c-28 12-46 38-46 72 0 37 24 64 64 64 35 0 60-21 60-55 0-13-4-23-13-33-3 18-16 29-31 29-19 0-33-14-33-34 0-31 27-57 64-57 37 0 65 30 65 73 0 70-64 127-144 120 4-4 7-8 9-13z" fill="url(#g1)"/>
  <path d="M142 74c-6 0-10 5-10 11v58c0 6 4 10 10 10h53c5 0 9-4 9-10s-4-10-9-10h-43v-48c0-6-5-11-10-11z" fill="url(#g2)"/>
</svg>
